<svg width="600" height="557" viewBox="0 0 600 557" fill="none" xmlns="http://www.w3.org/2000/svg">
<g clip-path="url(#clip0_2_116)">
<path d="M594.377 533.827L571.938 537.03L547.64 471.76L574.092 457.877L594.377 533.827Z" fill="#ED9DA0"/>
<path d="M517.418 544.303C517.009 546.383 516.964 548.515 517.284 550.611C517.431 551.582 517.773 552.515 518.292 553.358C518.81 554.2 519.495 554.935 520.307 555.521C521.118 556.107 522.041 556.531 523.022 556.771C524.002 557.01 525.022 557.06 526.023 556.916L595.514 547.001C596.891 546.804 598.132 546.084 598.963 545C599.793 543.915 600.146 542.555 599.943 541.218L599.517 538.418C599.517 538.418 601.678 529.489 593.022 520.098C593.022 520.098 583.29 530.978 568.212 520.098L563.211 513.66L540.429 536.27L525.154 540.346C521.812 541.238 518.725 541.199 517.405 544.309L517.418 544.303Z" fill="#090814"/>
<path d="M418.23 543.737H395.437L384.593 458.409H418.235L418.23 543.737Z" fill="#ED9DA0"/>
<path d="M340.13 543.234C339.409 545.246 339.042 547.362 339.045 549.492C339.045 550.478 339.245 551.454 339.634 552.365C340.023 553.276 340.592 554.103 341.311 554.801C342.029 555.498 342.882 556.051 343.82 556.428C344.759 556.805 345.765 556.999 346.781 556.999H417.379C418.779 556.999 420.121 556.46 421.111 555.499C422.101 554.538 422.657 553.236 422.657 551.877V549.027C422.657 549.027 426.147 540.463 418.961 529.889C418.961 529.889 410.025 538.162 396.676 525.2L392.739 518.282L364.238 538.511L348.444 540.4C344.987 540.814 341.923 540.336 340.145 543.241L340.13 543.234Z" fill="#090814"/>
<path d="M480.734 104.641L474.812 74.0914C480.46 70.3458 484.703 64.9229 486.904 58.6372C489.105 52.3516 489.145 45.5427 487.017 39.2333C484.889 32.924 480.71 27.4549 475.106 23.6478C469.502 19.8407 462.776 17.901 455.939 18.1202C449.102 18.3394 442.522 20.7056 437.19 24.8634C431.857 29.0212 428.058 34.7461 426.364 41.1779C424.67 47.6098 425.173 54.4013 427.796 60.5323C430.42 66.6633 435.023 71.8026 440.913 75.1782C437.943 89.7368 436.831 109.426 436.831 109.426L480.734 104.641Z" fill="#ED9DA0"/>
<path d="M524.771 260.759C524.771 260.759 531.781 342.548 533.286 360.076C534.317 371.062 536.847 381.866 540.809 392.206C542.61 395.866 543.633 399.839 543.818 403.891C543.818 403.891 563.09 435.307 575.216 458.3C582.574 472.345 587.821 487.34 590.798 502.828C590.798 502.828 560.952 508.169 556.432 506.71C551.912 505.251 546.096 473.429 495.654 393.669L459.536 320.642C459.536 320.642 438.461 386.358 433.95 393.668C433.95 393.668 426.072 501.571 423.063 508.874C420.054 516.177 382.195 506.71 382.195 506.71L388.791 396.588L402.337 272.446L471.566 251.993L524.771 260.759Z" fill="#090814"/>
<path d="M525.757 265.148C525.757 265.148 522.748 254.922 525.757 253.463C528.766 252.003 518.224 249.082 521.237 241.776C524.251 234.47 515.221 195.038 515.221 195.038L517.524 157.023L520.063 160.721L547.904 158.534C547.904 158.534 540.376 126.409 538.872 116.176C537.666 107.976 525.815 99.778 521.167 96.8496L521.239 95.7224L481.521 85.5056C479.897 85.6087 469.414 106.699 458.271 107.378C447.128 108.056 436.962 88.2133 436.962 88.2133L399.338 110.332L399.451 110.796C389.406 120.691 382.566 133.222 379.774 146.845C375.43 169.326 379.491 168.854 379.774 169.195C387.294 178.325 409.876 183.361 409.876 183.361L414.826 174.128L418.904 183.352C409.876 209.647 406.697 248.411 408.365 253.455L402.348 272.449C418.601 277.904 435.686 280.658 452.884 280.595C494.708 280.595 525.757 265.148 525.757 265.148Z" fill="#E6E6E6"/>
<path d="M399.884 160.076L380.312 152.772L379.039 169.459L357.89 140.964C357.614 138.602 356.665 136.361 355.15 134.494C353.635 132.626 351.613 131.205 349.312 130.39C347.011 129.576 344.521 129.399 342.122 129.882C339.724 130.364 337.511 131.486 335.733 133.121C333.955 134.755 332.681 136.839 332.055 139.137C331.43 141.436 331.477 143.858 332.191 146.132C332.905 148.405 334.258 150.441 336.098 152.01C337.938 153.579 340.192 154.62 342.608 155.014C349.781 166.219 382.2 215.574 396.878 215.574C413.426 215.574 399.884 160.076 399.884 160.076Z" fill="#ED9DA0"/>
<path d="M544.831 157.684C544.831 157.684 532.533 151 527.32 153.35C522.106 155.699 520.627 156.189 520.627 156.189C520.627 156.189 517.435 155.637 511.36 147.446C507.957 142.861 504.387 137.27 501.901 133.236C501.839 130.812 501.069 128.455 499.679 126.439C498.289 124.424 496.338 122.833 494.052 121.853C491.766 120.874 489.24 120.545 486.769 120.905C484.297 121.266 481.983 122.301 480.095 123.89C478.207 125.479 476.823 127.556 476.106 129.879C475.388 132.202 475.366 134.675 476.042 137.009C476.718 139.344 478.064 141.444 479.923 143.064C481.783 144.685 484.078 145.759 486.543 146.161C493.713 157.367 526.129 206.721 540.81 206.721C557.36 206.721 544.831 157.684 544.831 157.684Z" fill="#ED9DA0"/>
<path d="M463.122 48.8823C459.448 49.346 456.678 45.6927 455.391 42.3264C454.105 38.96 453.126 35.029 449.933 33.2055C445.569 30.7164 439.985 33.7103 434.995 32.8894C429.359 31.962 425.694 26.1692 425.408 20.6306C425.122 15.0919 427.393 9.76211 429.622 4.65512L430.399 11.0007C430.296 8.84967 430.762 6.70876 431.755 4.78273C432.747 2.8567 434.232 1.20997 436.068 0L435.064 9.31442C435.278 8.02971 435.751 6.79863 436.456 5.6918C437.162 4.58496 438.085 3.62416 439.174 2.86448C440.263 2.10481 441.495 1.56122 442.801 1.26489C444.107 0.968567 445.46 0.925333 446.783 1.13767L446.626 6.68399C453.11 5.71534 459.68 5.40453 466.229 5.75659C472.758 6.32821 479.332 8.33271 484.28 12.5046C491.677 18.7514 494.383 29.0225 493.476 38.5026C492.57 47.9827 488.54 56.8766 484.34 65.4801C483.284 67.6434 481.821 70.0851 479.373 70.3602C478.261 70.3753 477.175 70.0306 476.288 69.3806C475.4 68.7305 474.761 67.8121 474.472 66.7703C473.945 64.6723 473.965 62.4798 474.53 60.3913C475.151 57.2017 475.93 53.9356 475.352 50.7343C474.774 47.5329 472.397 44.3727 469.073 43.9807C465.749 43.5887 462.348 47.2753 463.122 48.8823Z" fill="#090814"/>
<path d="M511.81 131.132L326.419 140.249C320.093 140.56 315.24 145.804 315.579 151.961L323.16 289.557C323.5 295.715 328.903 300.454 335.229 300.143L520.62 291.026C526.946 290.715 531.799 285.471 531.46 279.314L523.879 141.718C523.54 135.56 518.136 130.821 511.81 131.132Z" fill="#6C63FF"/>
<path d="M417.78 251.515L354.808 254.634C353.869 254.681 352.949 254.36 352.249 253.742C351.55 253.124 351.128 252.26 351.078 251.339C351.028 250.419 351.352 249.518 351.981 248.834C352.609 248.15 353.489 247.74 354.428 247.694L417.4 244.574C418.339 244.528 419.259 244.849 419.958 245.467C420.658 246.085 421.079 246.949 421.129 247.87C421.18 248.79 420.855 249.691 420.227 250.375C419.599 251.059 418.718 251.469 417.78 251.515Z" fill="white"/>
<path d="M417.071 238.315L354.1 241.434C353.161 241.481 352.241 241.16 351.541 240.542C350.842 239.924 350.42 239.059 350.37 238.139C350.32 237.219 350.644 236.317 351.273 235.634C351.901 234.95 352.781 234.54 353.72 234.493L416.692 231.374C417.631 231.328 418.551 231.649 419.25 232.267C419.95 232.885 420.371 233.749 420.421 234.669C420.472 235.59 420.147 236.491 419.519 237.175C418.891 237.858 418.01 238.269 417.071 238.315Z" fill="white"/>
<path d="M373.388 266.773L355.505 267.655C354.566 267.701 353.646 267.382 352.947 266.767C352.248 266.152 351.827 265.293 351.776 264.378C351.726 263.462 352.051 262.566 352.679 261.886C353.307 261.206 354.187 260.798 355.125 260.752L373.008 259.871C373.947 259.824 374.867 260.144 375.566 260.758C376.265 261.373 376.686 262.232 376.737 263.148C376.787 264.063 376.463 264.959 375.835 265.639C375.206 266.319 374.326 266.727 373.388 266.773Z" fill="white"/>
<path d="M413.82 206.406C412.881 206.454 411.96 206.139 411.256 205.53L393.74 190.354C393.396 190.056 393.116 189.694 392.916 189.291C392.717 188.887 392.601 188.449 392.576 188.003C392.552 187.556 392.619 187.109 392.773 186.688C392.927 186.267 393.166 185.88 393.475 185.55L409.164 168.804C409.818 168.11 410.728 167.695 411.695 167.65C412.663 167.606 413.611 167.935 414.334 168.566C415.057 169.202 415.493 170.091 415.545 171.037C415.597 171.984 415.262 172.911 414.612 173.614L402.963 186.208C402.6 186.601 402.412 187.119 402.441 187.648C402.47 188.177 402.714 188.673 403.118 189.029L416.019 200.349C416.546 200.811 416.921 201.414 417.096 202.082C417.271 202.75 417.239 203.453 417.003 204.101C416.767 204.75 416.339 205.316 415.772 205.726C415.205 206.137 414.525 206.374 413.818 206.407L413.82 206.406Z" fill="white"/>
<path d="M496.041 247.562L433.069 250.681C432.13 250.728 431.21 250.407 430.51 249.789C429.811 249.171 429.39 248.306 429.339 247.386C429.289 246.466 429.614 245.564 430.242 244.881C430.87 244.197 431.751 243.787 432.689 243.74L495.661 240.621C496.6 240.575 497.52 240.896 498.22 241.514C498.919 242.132 499.34 242.996 499.391 243.916C499.441 244.837 499.116 245.738 498.488 246.422C497.86 247.105 496.98 247.516 496.041 247.562Z" fill="white"/>
<path d="M496.738 260.607L387.186 266.053C386.248 266.099 385.327 265.777 384.628 265.157C383.928 264.537 383.507 263.669 383.457 262.746C383.406 261.822 383.731 260.918 384.359 260.231C384.987 259.545 385.868 259.133 386.807 259.087L496.358 253.641C497.297 253.595 498.218 253.917 498.917 254.537C499.617 255.157 500.038 256.025 500.088 256.948C500.139 257.872 499.814 258.776 499.186 259.463C498.557 260.149 497.677 260.561 496.738 260.607Z" fill="white"/>
<path d="M451.742 236.706L433.859 237.587C432.92 237.634 432 237.314 431.301 236.7C430.602 236.085 430.181 235.226 430.13 234.31C430.08 233.395 430.405 232.499 431.033 231.819C431.661 231.139 432.541 230.731 433.479 230.685L451.362 229.803C452.301 229.757 453.221 230.076 453.92 230.691C454.619 231.306 455.04 232.165 455.091 233.08C455.141 233.996 454.817 234.892 454.189 235.572C453.56 236.252 452.68 236.66 451.742 236.706Z" fill="white"/>
<path d="M440.433 205.04C439.726 205.076 439.024 204.907 438.415 204.555C437.806 204.202 437.317 203.682 437.011 203.059C436.706 202.437 436.596 201.741 436.697 201.06C436.798 200.378 437.104 199.742 437.578 199.231L449.165 186.707C449.528 186.314 449.716 185.796 449.687 185.267C449.658 184.738 449.414 184.241 449.01 183.886L436.039 172.504C435.315 171.868 434.879 170.98 434.827 170.034C434.775 169.087 435.111 168.161 435.761 167.457C436.41 166.759 437.317 166.339 438.284 166.288C439.252 166.238 440.202 166.561 440.929 167.187L458.374 182.301C458.717 182.599 458.997 182.96 459.197 183.363C459.396 183.767 459.512 184.205 459.537 184.652C459.561 185.099 459.494 185.545 459.34 185.966C459.186 186.387 458.947 186.774 458.638 187.104L442.885 203.918C442.253 204.592 441.371 204.995 440.433 205.04Z" fill="white"/>
<path d="M0.0423302 526.233H0V247.478H237.973V526.233H237.929C236.227 543.209 183.623 556.831 118.987 556.831C54.3498 556.831 1.7463 543.209 0.0423302 526.233Z" fill="#E6E6E6"/>
<path d="M118.987 278.5C184.701 278.5 237.973 264.419 237.973 247.048C237.973 229.677 184.701 215.596 118.987 215.596C53.2721 215.596 0 229.677 0 247.048C0 264.419 53.2721 278.5 118.987 278.5Z" fill="#E0E0E0"/>
<mask id="mask0_2_116" style="mask-type:luminance" maskUnits="userSpaceOnUse" x="66" y="352" width="106" height="102">
<path d="M66.9922 352.077H171.226V453.229H66.9922V352.077Z" fill="white"/>
</mask>
<g mask="url(#mask0_2_116)">
<path d="M169.263 398.149L123.751 353.987C123.128 353.382 122.389 352.901 121.574 352.574C120.76 352.246 119.887 352.077 119.005 352.077C118.123 352.077 117.25 352.246 116.436 352.574C115.622 352.901 114.882 353.382 114.259 353.987L104.808 363.159L116.793 374.79C118.207 374.325 119.727 374.253 121.18 374.585C122.633 374.916 123.961 375.636 125.014 376.664C126.066 377.691 126.8 378.985 127.132 380.397C127.464 381.809 127.381 383.284 126.892 384.653L138.444 395.862C140.169 395.286 142.045 395.302 143.76 395.906C145.475 396.51 146.925 397.666 147.868 399.182C148.811 400.697 149.191 402.481 148.943 404.235C148.696 405.989 147.836 407.608 146.508 408.822C145.18 410.035 143.463 410.771 141.644 410.905C139.825 411.039 138.013 410.565 136.511 409.56C135.008 408.555 133.906 407.082 133.388 405.384C132.87 403.686 132.967 401.868 133.662 400.231L122.883 389.78V417.298C124.513 418.084 125.816 419.388 126.576 420.993C127.337 422.598 127.507 424.407 127.06 426.12C126.612 427.832 125.574 429.344 124.118 430.403C122.661 431.463 120.875 432.006 119.056 431.943C117.237 431.88 115.495 431.214 114.12 430.057C112.745 428.899 111.821 427.319 111.501 425.58C111.18 423.841 111.483 422.048 112.359 420.5C113.236 418.952 114.632 417.741 116.316 417.071V389.299C115.34 388.912 114.454 388.34 113.707 387.619C112.96 386.897 112.368 386.039 111.965 385.094C111.562 384.149 111.355 383.135 111.357 382.113C111.36 381.09 111.571 380.077 111.978 379.134L100.163 367.664L68.9596 397.942C68.336 398.547 67.8413 399.265 67.5038 400.056C67.1663 400.846 66.9926 401.694 66.9926 402.549C66.9926 403.405 67.1663 404.252 67.5038 405.043C67.8413 405.833 68.336 406.552 68.9596 407.157L114.472 451.324C115.731 452.545 117.438 453.231 119.218 453.231C120.998 453.231 122.705 452.545 123.965 451.324L169.263 407.364C170.52 406.141 171.227 404.484 171.227 402.757C171.227 401.029 170.52 399.372 169.263 398.149Z" fill="#6C63FF"/>
</g>
</g>
<defs>
<clipPath id="clip0_2_116">
<rect width="600" height="557" fill="white"/>
</clipPath>
</defs>
</svg>
