<svg width="756" height="542" viewBox="0 0 756 542" fill="none" xmlns="http://www.w3.org/2000/svg">
<g clip-path="url(#clip0_2_268)">
<path d="M681.553 275.991C681.553 275.991 652.194 245.724 643.645 222.497C651.345 216.18 656.735 207.489 658.972 197.784C661.209 188.078 660.167 177.905 656.009 168.855C651.851 159.804 644.811 152.387 635.99 147.761C627.169 143.135 617.064 141.563 607.254 143.289C597.445 145.014 588.484 149.942 581.771 157.3C575.059 164.659 570.974 174.034 570.155 183.96C569.336 193.886 571.829 203.803 577.245 212.162C582.66 220.521 590.693 226.851 600.087 230.161L615.515 288.984L681.553 275.991Z" fill="#9F616A"/>
<path d="M650.309 91.5751C660.659 92.9729 670.872 98.5654 675.688 107.846C680.503 117.126 678.444 130.058 669.747 135.847C682.153 150.06 686.466 165.9 685.786 184.737C685.106 203.59 664.563 220.929 651.165 234.211C651.059 234.146 650.956 234.076 650.858 234.001C652.44 239 655.352 243.474 659.284 246.944C650.876 248.535 641.788 242.245 640.352 233.8C638.662 223.994 646.1 214.52 645.225 204.598C644.449 195.857 637.556 189.141 631.712 182.598C627.488 177.885 623.455 172.072 622.539 166.068C616.362 161.694 609.157 158.996 601.627 158.235C594.559 157.574 587.103 158.778 581.32 162.875C575.536 166.971 570.348 173.925 571.685 180.895C568.141 177.304 567.896 172.644 568.56 167.644C568.888 165.176 569.775 162.816 571.155 160.745C572.535 158.673 574.37 156.944 576.52 155.69C575.262 151.361 575.122 146.784 576.114 142.387C577.105 137.99 579.196 133.916 582.19 130.546C587.77 124.392 609.102 124.902 618.745 125.46C618.103 125.071 617.625 124.461 617.399 123.745C616.972 122.288 617.478 120.753 617.943 119.314C618.754 116.906 619.555 114.519 620.37 112.111C622.097 107.005 623.924 101.723 627.651 97.8402C632.172 93.1382 638.848 91.246 645.473 91.2452C647.09 91.247 648.706 91.3573 650.309 91.5751Z" fill="#090814"/>
<path d="M571.967 319.913L575.038 384.45C575.038 384.45 573.502 468.962 587.332 475.109C594.324 478.21 588.231 501.16 601.214 507.982C610.956 513.083 612.603 503.326 617.706 507.982C619.059 509.132 620.225 510.486 621.163 511.993C627.311 522.75 694.897 519.672 704.115 511.988C713.334 504.303 707.187 521.206 714.873 524.281C722.311 527.262 732.621 502.892 726.306 466.505C726.106 465.294 725.875 464.064 725.633 462.817C718.58 427.555 729.659 343.087 727.953 310.45C727.854 307.957 727.592 305.472 727.17 303.013C722.56 278.428 663.736 228.398 652.739 249.709C639.185 276.015 608.053 251.983 602.706 240.018C571.974 238.483 561.217 275.361 561.217 275.361L571.967 319.913Z" fill="#E6E6E6"/>
<path d="M407.583 314.329L399.157 349.103C399.063 349.49 399.077 349.896 399.198 350.276L437.44 469.775C437.593 470.248 437.902 470.654 438.317 470.926C438.732 471.198 439.228 471.32 439.722 471.271C440.216 471.222 440.678 471.006 441.032 470.658C441.386 470.31 441.61 469.851 441.667 469.358L446.958 422.807C446.993 422.498 446.962 422.185 446.865 421.889L411.76 314.169C411.612 313.721 411.323 313.333 410.936 313.064C410.548 312.795 410.084 312.66 409.612 312.678C409.141 312.696 408.688 312.867 408.323 313.165C407.957 313.464 407.699 313.873 407.586 314.331L407.583 314.329Z" fill="#090814"/>
<path d="M410.685 317.262L402.901 347.098L436.63 456.065L444.414 422.339L410.685 317.262Z" fill="white"/>
<path d="M580.625 479.416C579.328 483.307 445.711 478.118 444.415 476.817C443.285 475.193 442.328 473.454 441.562 471.63C440.343 469.031 439.227 466.442 439.227 466.442L444.415 424.439L576.734 419.744C576.734 419.744 580.042 455.337 580.717 471.631C580.946 474.222 580.916 476.829 580.625 479.414V479.416Z" fill="#090814"/>
<path opacity="0.1" d="M461.276 430.119L458.678 466.441H517.054V430.119H461.276Z" fill="#D6D6E3"/>
<path opacity="0.1" d="M536.518 441.793L536.169 441.723L537.818 457.358H570.257V441.793H536.518Z" fill="black"/>
<path opacity="0.1" d="M580.625 479.405C579.328 483.296 445.71 478.107 444.415 476.806C443.285 475.182 442.328 473.443 441.562 471.619H580.714C580.943 474.209 580.913 476.816 580.622 479.401L580.625 479.405Z" fill="black"/>
<path d="M564.283 407.5L522.793 429.013C522.793 429.013 498.206 402.891 482.843 422.866C467.48 442.842 527.408 448.99 527.408 448.99C527.408 448.99 579.653 436.697 581.194 419.796C582.735 402.895 564.283 407.5 564.283 407.5Z" fill="#9F616A"/>
<path d="M579.65 261.527C578.114 263.064 561.21 275.356 561.21 275.356C561.21 275.356 556.6 333.745 562.747 346.039C568.893 358.333 573.504 358.332 568.894 364.478C564.284 370.625 558.137 366.015 564.284 376.771C570.431 387.528 576.578 385.99 571.964 390.601C567.35 395.211 568.892 396.748 568.892 396.748L550.454 412.113C550.454 412.113 561.767 430.13 576.088 428.801C590.408 427.472 602.705 358.329 602.705 358.329L579.65 261.527Z" fill="#E6E6E6"/>
<path d="M602.988 499.006C598.602 499.006 596.428 492.077 591.341 487.149C587.01 482.952 579.779 480.751 575.169 480.421C508.745 475.672 427.355 473.816 427.355 473.816C427.355 473.816 443.119 493.213 443.119 505.654C443.119 532.243 476.361 524.507 605.772 524.507C735.182 524.507 756 558.41 756 531.82C756 505.23 732.399 499.006 602.988 499.006Z" fill="#F2F2F2"/>
<path d="M633.433 464.355L608.846 470.497C608.846 470.497 581.187 436.692 551.989 448.985C522.791 461.278 588.867 485.862 588.867 485.862C588.867 485.862 624.21 504.3 638.04 488.933C651.869 473.566 633.433 464.355 633.433 464.355Z" fill="#9F616A"/>
<path d="M714.876 298.403L728.707 303.009C728.707 303.009 765.586 438.228 722.56 461.276C679.534 484.324 631.896 507.374 630.362 501.224C628.827 495.074 611.921 470.492 616.531 467.419C621.141 464.346 688.752 427.471 688.752 427.471V322.989L714.876 298.403Z" fill="#E6E6E6"/>
<path opacity="0.1" d="M694.133 354.489L697.204 428.243L615.761 466.658L691.062 428.243L694.133 354.489Z" fill="black"/>
<path d="M136.922 208.657L51.7292 246.691C50.3399 247.31 48.7619 247.352 47.3415 246.808C45.9212 246.265 44.7743 245.18 44.1527 243.792L0.498428 146.018C-0.120149 144.628 -0.162345 143.051 0.381101 141.63C0.924547 140.21 2.00925 139.063 3.39722 138.442L88.5898 100.407C89.9792 99.7888 91.5572 99.7467 92.9776 100.29C94.3981 100.834 95.5448 101.919 96.1663 103.307L139.825 201.082C140.443 202.472 140.485 204.049 139.942 205.47C139.398 206.89 138.314 208.037 136.926 208.658L136.922 208.657Z" fill="#D6D6E3"/>
<path d="M98.0296 138.108L46.4933 161.117C46.377 161.161 46.2486 161.158 46.1341 161.11C46.0197 161.062 45.928 160.972 45.8777 160.859C45.8274 160.745 45.8223 160.617 45.8636 160.5C45.9048 160.383 45.9892 160.286 46.0995 160.229L97.6359 137.219C97.6948 137.189 97.7594 137.171 97.8255 137.166C97.8917 137.162 97.9581 137.171 98.0207 137.193C98.0832 137.215 98.1406 137.25 98.1893 137.295C98.238 137.34 98.277 137.394 98.3039 137.455C98.3308 137.515 98.345 137.581 98.3456 137.647C98.3463 137.713 98.3334 137.779 98.3077 137.84C98.282 137.902 98.2441 137.957 98.1963 138.003C98.1484 138.049 98.0917 138.084 98.0296 138.108Z" fill="#090814"/>
<path d="M83.7522 153.071L49.6905 168.278C49.6316 168.308 49.567 168.326 49.5008 168.331C49.4347 168.335 49.3683 168.326 49.3057 168.304C49.2431 168.282 49.1858 168.247 49.137 168.202C49.0883 168.157 49.0493 168.103 49.0225 168.042C48.9956 167.982 48.9814 167.916 48.9807 167.85C48.9801 167.784 48.993 167.718 49.0187 167.657C49.0444 167.595 49.0823 167.54 49.1301 167.494C49.1779 167.448 49.2346 167.413 49.2968 167.389L83.3553 152.182C83.4716 152.138 83.6 152.141 83.7145 152.189C83.8289 152.237 83.9206 152.327 83.9709 152.44C84.0212 152.554 84.0262 152.682 83.985 152.799C83.9438 152.916 83.8594 153.013 83.7491 153.07L83.7522 153.071Z" fill="#090814"/>
<path d="M44.0842 174.269L29.143 180.939C29.0252 180.992 28.8913 180.995 28.7708 180.949C28.6503 180.903 28.553 180.811 28.5004 180.693L22.02 166.181C21.9675 166.064 21.9638 165.93 22.0099 165.809C22.0559 165.689 22.148 165.591 22.2657 165.539L35.8186 159.488C35.8776 159.458 35.9421 159.44 36.0083 159.435C36.0744 159.43 36.1408 159.439 36.2034 159.461C36.266 159.483 36.3234 159.518 36.3721 159.563C36.4208 159.608 36.4598 159.663 36.4866 159.723C36.5135 159.784 36.5277 159.849 36.5284 159.916C36.529 159.982 36.5161 160.048 36.4904 160.109C36.4647 160.17 36.4268 160.225 36.379 160.271C36.3312 160.317 36.2745 160.353 36.2124 160.376L23.1036 166.229L29.1871 179.852L43.24 173.577L39.638 165.51C39.6076 165.451 39.5895 165.387 39.585 165.321C39.5804 165.255 39.5894 165.188 39.6115 165.126C39.6335 165.063 39.6681 165.006 39.7131 164.957C39.7581 164.908 39.8126 164.869 39.8733 164.842C39.9339 164.816 39.9994 164.801 40.0657 164.801C40.1321 164.8 40.1978 164.813 40.259 164.839C40.3201 164.864 40.3754 164.902 40.4214 164.95C40.4673 164.998 40.503 165.055 40.5263 165.117L44.3268 173.628C44.379 173.745 44.3829 173.878 44.3375 173.998C44.292 174.118 44.201 174.215 44.0842 174.269Z" fill="#090814"/>
<path d="M36.1778 174.312C36.1107 174.342 36.0378 174.356 35.9644 174.354C35.891 174.351 35.8191 174.332 35.7541 174.298L29.0919 170.815C29.035 170.785 28.9845 170.745 28.9433 170.695C28.9021 170.646 28.8709 170.59 28.8517 170.528C28.8324 170.467 28.8254 170.403 28.831 170.339C28.8366 170.275 28.8547 170.213 28.8843 170.156C28.914 170.099 28.9545 170.049 29.0037 170.007C29.0528 169.966 29.1096 169.935 29.1707 169.916C29.2319 169.897 29.2963 169.89 29.3602 169.895C29.4241 169.901 29.4862 169.919 29.5431 169.949L35.6368 173.135L39.3553 155.639C39.3686 155.576 39.3941 155.517 39.4303 155.464C39.4665 155.412 39.5127 155.367 39.5663 155.332C39.6199 155.297 39.6799 155.273 39.7427 155.261C39.8055 155.25 39.8701 155.251 39.9326 155.264C39.9951 155.277 40.0544 155.303 40.107 155.339C40.1597 155.375 40.2047 155.421 40.2396 155.475C40.2744 155.529 40.2983 155.588 40.3099 155.651C40.3216 155.714 40.3207 155.779 40.3074 155.841L36.455 173.965C36.4393 174.039 36.4068 174.108 36.3601 174.167C36.3134 174.225 36.2537 174.273 36.1856 174.305L36.1778 174.312Z" fill="#6C63FF"/>
<path d="M109.006 162.689L57.4693 185.699C57.3531 185.742 57.2246 185.74 57.1102 185.691C56.9958 185.643 56.9041 185.553 56.8538 185.44C56.8035 185.327 56.7984 185.198 56.8397 185.081C56.8809 184.964 56.9653 184.867 57.0756 184.81L108.612 161.801C108.671 161.77 108.735 161.752 108.802 161.748C108.868 161.743 108.934 161.752 108.997 161.774C109.059 161.796 109.117 161.831 109.165 161.876C109.214 161.921 109.253 161.975 109.28 162.036C109.307 162.097 109.321 162.162 109.322 162.228C109.322 162.295 109.309 162.361 109.284 162.422C109.258 162.483 109.22 162.538 109.172 162.584C109.125 162.63 109.068 162.666 109.006 162.689Z" fill="#090814"/>
<path d="M94.7283 177.652L60.6666 192.86C60.6076 192.89 60.5431 192.908 60.4769 192.913C60.4107 192.917 60.3443 192.908 60.2818 192.886C60.2192 192.864 60.1618 192.83 60.1131 192.785C60.0644 192.74 60.0254 192.685 59.9985 192.624C59.9717 192.564 59.9575 192.498 59.9568 192.432C59.9562 192.366 59.9691 192.3 59.9948 192.239C60.0204 192.178 60.0584 192.122 60.1062 192.076C60.154 192.03 60.2107 191.995 60.2728 191.971L94.3346 176.764C94.3935 176.734 94.4581 176.716 94.5242 176.711C94.5904 176.706 94.6568 176.715 94.7194 176.738C94.7819 176.76 94.8393 176.794 94.888 176.839C94.9367 176.884 94.9757 176.939 95.0026 176.999C95.0295 177.06 95.0437 177.125 95.0443 177.192C95.045 177.258 95.0321 177.324 95.0064 177.385C94.9807 177.446 94.9428 177.501 94.895 177.547C94.8471 177.593 94.7904 177.629 94.7283 177.652Z" fill="#090814"/>
<path d="M55.0627 198.851L40.1215 205.522C40.0037 205.575 39.8698 205.578 39.7493 205.532C39.6288 205.486 39.5316 205.394 39.4789 205.276L32.9985 190.764C32.946 190.646 32.9423 190.513 32.9884 190.392C33.0345 190.272 33.1265 190.174 33.2443 190.122L46.7971 184.071C46.8561 184.04 46.9206 184.022 46.9868 184.018C47.053 184.013 47.1194 184.022 47.1819 184.044C47.2445 184.066 47.3019 184.101 47.3506 184.146C47.3993 184.191 47.4383 184.245 47.4652 184.306C47.492 184.367 47.5062 184.432 47.5069 184.499C47.5075 184.565 47.4946 184.631 47.4689 184.692C47.4433 184.753 47.4053 184.808 47.3575 184.854C47.3097 184.9 47.253 184.936 47.1909 184.959L34.0821 190.812L40.1656 204.435L54.2185 198.16L50.6165 190.093C50.573 189.977 50.5755 189.849 50.6236 189.734C50.6716 189.62 50.7616 189.528 50.8751 189.478C50.9885 189.428 51.1169 189.422 51.234 189.464C51.351 189.505 51.4479 189.589 51.5048 189.7L55.3053 198.21C55.3576 198.328 55.3614 198.461 55.316 198.581C55.2705 198.701 55.1795 198.798 55.0627 198.851Z" fill="#090814"/>
<path d="M47.1538 198.892C47.0868 198.921 47.0139 198.936 46.9405 198.933C46.8671 198.931 46.7952 198.912 46.7302 198.878L40.0679 195.394C39.953 195.335 39.8667 195.232 39.8277 195.108C39.7888 194.985 39.8006 194.851 39.8604 194.736C39.9203 194.621 40.0233 194.535 40.1468 194.496C40.2704 194.457 40.4043 194.468 40.5192 194.528L46.6128 197.715L50.3314 180.219C50.3447 180.156 50.3702 180.097 50.4064 180.044C50.4426 179.991 50.4888 179.946 50.5424 179.912C50.596 179.877 50.6559 179.853 50.7188 179.841C50.7816 179.83 50.8461 179.83 50.9087 179.844C50.9712 179.857 51.0305 179.883 51.0831 179.919C51.1358 179.955 51.1808 180.001 51.2156 180.055C51.2504 180.108 51.2743 180.168 51.286 180.231C51.2976 180.294 51.2968 180.358 51.2835 180.421L47.431 198.545C47.4154 198.619 47.3829 198.688 47.3362 198.746C47.2894 198.805 47.2297 198.853 47.1617 198.885L47.1538 198.892Z" fill="#6C63FF"/>
<path d="M119.982 187.271L68.4447 210.281C68.3284 210.324 68.2 210.322 68.0856 210.274C67.9711 210.225 67.8794 210.136 67.8291 210.022C67.7788 209.909 67.7738 209.78 67.815 209.663C67.8562 209.546 67.9406 209.449 68.0509 209.392L119.585 186.38C119.644 186.349 119.708 186.331 119.775 186.327C119.841 186.322 119.907 186.331 119.97 186.353C120.032 186.375 120.09 186.41 120.138 186.455C120.187 186.5 120.226 186.554 120.253 186.615C120.28 186.676 120.294 186.741 120.295 186.807C120.295 186.874 120.282 186.939 120.257 187.001C120.231 187.062 120.193 187.117 120.145 187.163C120.097 187.209 120.041 187.245 119.979 187.268L119.982 187.271Z" fill="#090814"/>
<path d="M105.704 202.235L71.6426 217.443C71.5837 217.473 71.5192 217.491 71.453 217.496C71.3868 217.5 71.3204 217.491 71.2578 217.469C71.1953 217.447 71.1379 217.412 71.0892 217.367C71.0405 217.322 71.0015 217.268 70.9746 217.207C70.9477 217.147 70.9335 217.081 70.9329 217.015C70.9322 216.948 70.9451 216.883 70.9708 216.822C70.9965 216.76 71.0344 216.705 71.0822 216.659C71.1301 216.613 71.1868 216.578 71.2489 216.554L105.311 201.347C105.37 201.316 105.434 201.298 105.5 201.294C105.566 201.289 105.633 201.298 105.695 201.32C105.758 201.342 105.815 201.377 105.864 201.422C105.913 201.467 105.952 201.522 105.979 201.582C106.006 201.643 106.02 201.708 106.02 201.775C106.021 201.841 106.008 201.907 105.982 201.968C105.957 202.029 105.919 202.084 105.871 202.13C105.823 202.176 105.766 202.212 105.704 202.235Z" fill="#090814"/>
<path d="M66.0373 223.434L51.0961 230.101C50.9783 230.154 50.8444 230.157 50.7239 230.111C50.6034 230.065 50.5062 229.973 50.4535 229.855L43.9732 215.343C43.9206 215.225 43.9169 215.092 43.963 214.971C44.0091 214.851 44.1011 214.753 44.2189 214.701L57.7717 208.65C57.8307 208.619 57.8952 208.601 57.9614 208.597C58.0276 208.592 58.094 208.601 58.1565 208.623C58.2191 208.645 58.2765 208.68 58.3252 208.725C58.3739 208.77 58.4129 208.824 58.4398 208.885C58.4666 208.946 58.4809 209.011 58.4815 209.078C58.4822 209.144 58.4692 209.21 58.4435 209.271C58.4179 209.332 58.3799 209.387 58.3321 209.433C58.2843 209.479 58.2276 209.515 58.1655 209.538L45.0607 215.394L51.1441 229.017L65.1971 222.742L61.5982 214.676C61.5547 214.56 61.5572 214.432 61.6053 214.317C61.6533 214.203 61.7433 214.111 61.8568 214.061C61.9702 214.01 62.0986 214.005 62.2157 214.047C62.3327 214.088 62.4296 214.172 62.4865 214.282L66.287 222.793C66.3386 222.911 66.3413 223.045 66.2945 223.165C66.2477 223.285 66.1552 223.382 66.0373 223.434Z" fill="#090814"/>
<path d="M58.1299 223.476C58.0629 223.506 57.9899 223.52 57.9165 223.518C57.8432 223.516 57.7713 223.497 57.7062 223.463L51.044 219.979C50.9871 219.949 50.9366 219.909 50.8954 219.86C50.8542 219.811 50.8231 219.754 50.8038 219.693C50.7845 219.631 50.7775 219.567 50.7831 219.503C50.7887 219.439 50.8069 219.377 50.8365 219.32C50.8661 219.263 50.9067 219.213 50.9558 219.172C51.0049 219.13 51.0617 219.099 51.1229 219.08C51.1841 219.061 51.2484 219.054 51.3123 219.059C51.3762 219.065 51.4384 219.083 51.4952 219.113L57.5889 222.3L61.3075 204.803C61.3208 204.741 61.3462 204.681 61.3824 204.629C61.4186 204.576 61.4649 204.531 61.5185 204.496C61.5721 204.461 61.632 204.437 61.6948 204.426C61.7577 204.414 61.8222 204.415 61.8847 204.428C61.9472 204.442 62.0065 204.467 62.0592 204.503C62.1119 204.539 62.1569 204.586 62.1917 204.639C62.2265 204.693 62.2504 204.753 62.2621 204.816C62.2737 204.878 62.2729 204.943 62.2596 205.005L58.4071 223.13C58.3914 223.203 58.359 223.272 58.3122 223.331C58.2655 223.39 58.2058 223.437 58.1378 223.469H58.1291L58.1299 223.476Z" fill="#6C63FF"/>
<path d="M354.818 93.9588H208.517C205.473 93.9588 203.005 96.4267 203.005 99.471V125.082C203.005 128.127 205.473 130.595 208.517 130.595H354.818C357.862 130.595 360.33 128.127 360.33 125.082V99.471C360.33 96.4267 357.862 93.9588 354.818 93.9588Z" fill="#E6E6E6"/>
<path d="M206.022 95.2518C205.565 95.2524 205.127 95.4342 204.804 95.7574C204.48 96.0805 204.299 96.5186 204.298 96.9756V127.577C204.299 128.034 204.48 128.472 204.804 128.795C205.127 129.118 205.565 129.3 206.022 129.301H357.312C357.769 129.3 358.207 129.118 358.531 128.795C358.854 128.472 359.036 128.034 359.036 127.577V96.9756C359.036 96.5186 358.854 96.0805 358.531 95.7574C358.207 95.4342 357.769 95.2524 357.312 95.2518H206.022ZM206.022 93.9588H357.312C358.113 93.9588 358.88 94.2766 359.446 94.8424C360.011 95.4081 360.329 96.1755 360.329 96.9756V127.577C360.329 127.973 360.251 128.365 360.1 128.731C359.948 129.097 359.726 129.43 359.446 129.71C359.165 129.99 358.833 130.213 358.467 130.364C358.101 130.516 357.709 130.594 357.312 130.594H206.022C205.626 130.594 205.233 130.516 204.867 130.364C204.501 130.213 204.169 129.99 203.889 129.71C203.608 129.43 203.386 129.097 203.235 128.731C203.083 128.365 203.005 127.973 203.005 127.577V96.9756C203.005 96.1755 203.323 95.4081 203.889 94.8424C204.454 94.2766 205.222 93.9588 206.022 93.9588Z" fill="#090814"/>
<path d="M225.711 106.145C225.507 106.14 225.304 106.176 225.113 106.251C224.923 106.326 224.75 106.438 224.604 106.581C224.458 106.724 224.342 106.894 224.263 107.083C224.184 107.271 224.143 107.473 224.143 107.678C224.143 107.882 224.184 108.084 224.263 108.272C224.342 108.461 224.458 108.631 224.604 108.774C224.75 108.917 224.923 109.029 225.113 109.104C225.304 109.179 225.507 109.215 225.711 109.21H337.631C337.835 109.215 338.038 109.179 338.228 109.104C338.418 109.029 338.592 108.917 338.738 108.774C338.884 108.631 339 108.461 339.079 108.272C339.158 108.084 339.199 107.882 339.199 107.678C339.199 107.473 339.158 107.271 339.079 107.083C339 106.894 338.884 106.724 338.738 106.581C338.592 106.438 338.418 106.326 338.228 106.251C338.038 106.176 337.835 106.14 337.631 106.145H225.711Z" fill="#6C63FF"/>
<path d="M225.711 115.342C225.31 115.35 224.929 115.515 224.648 115.801C224.368 116.087 224.21 116.471 224.209 116.872C224.208 117.273 224.364 117.658 224.644 117.945C224.923 118.232 225.304 118.398 225.705 118.408H296.462C296.666 118.412 296.869 118.376 297.059 118.301C297.249 118.226 297.422 118.114 297.568 117.971C297.714 117.829 297.83 117.658 297.91 117.47C297.989 117.281 298.03 117.079 298.03 116.875C298.03 116.671 297.989 116.469 297.91 116.28C297.83 116.092 297.714 115.921 297.568 115.779C297.422 115.636 297.249 115.524 297.059 115.449C296.869 115.374 296.666 115.338 296.462 115.342H225.711Z" fill="#6C63FF"/>
<path d="M381.155 73.4565C385.662 73.4565 389.316 69.803 389.316 65.2961C389.316 60.7892 385.662 57.1357 381.155 57.1357C376.648 57.1357 372.994 60.7892 372.994 65.2961C372.994 69.803 376.648 73.4565 381.155 73.4565Z" fill="#6C63FF"/>
<path d="M380.346 68.4065C380.162 68.4069 379.983 68.3475 379.836 68.2372L379.827 68.2302L377.908 66.7631C377.729 66.6256 377.612 66.4224 377.582 66.1983C377.552 65.9742 377.613 65.7476 377.751 65.5682C377.888 65.3888 378.091 65.2713 378.315 65.2417C378.54 65.2121 378.766 65.2727 378.946 65.4103L380.188 66.3631L383.124 62.5337C383.262 62.3544 383.465 62.2371 383.689 62.2075C383.913 62.178 384.139 62.2387 384.319 62.3762L384.301 62.4014L384.32 62.3762C384.499 62.5138 384.616 62.7169 384.645 62.9409C384.675 63.1649 384.614 63.3914 384.477 63.5708L381.024 68.0734C380.944 68.1772 380.841 68.2611 380.724 68.3187C380.606 68.3764 380.477 68.4069 380.346 68.4065Z" fill="white"/>
<path d="M354.818 46.979H208.517C205.473 46.979 203.005 49.4469 203.005 52.4912V78.1025C203.005 81.1468 205.473 83.6147 208.517 83.6147H354.818C357.862 83.6147 360.33 81.1468 360.33 78.1025V52.4912C360.33 49.4469 357.862 46.979 354.818 46.979Z" fill="#6C63FF"/>
<path d="M206.022 48.272C205.565 48.2726 205.127 48.4544 204.804 48.7776C204.48 49.1007 204.299 49.5388 204.298 49.9958V80.5972C204.299 81.0542 204.48 81.4922 204.804 81.8154C205.127 82.1385 205.565 82.3203 206.022 82.3209H357.312C357.769 82.3203 358.207 82.1385 358.531 81.8154C358.854 81.4922 359.036 81.0542 359.036 80.5972V49.9958C359.036 49.5388 358.854 49.1007 358.531 48.7776C358.207 48.4544 357.769 48.2726 357.312 48.272H206.022ZM206.022 46.979H357.312C358.113 46.979 358.88 47.2968 359.446 47.8626C360.011 48.4283 360.329 49.1957 360.329 49.9958V80.5972C360.329 80.9934 360.251 81.3856 360.1 81.7517C359.948 82.1177 359.726 82.4502 359.446 82.7304C359.165 83.0105 358.833 83.2327 358.467 83.3843C358.101 83.5359 357.709 83.6139 357.312 83.6139H206.022C205.626 83.6139 205.233 83.5359 204.867 83.3843C204.501 83.2327 204.169 83.0105 203.889 82.7304C203.608 82.4502 203.386 82.1177 203.235 81.7517C203.083 81.3856 203.005 80.9934 203.005 80.5972V49.9958C203.005 49.1957 203.323 48.4283 203.889 47.8626C204.454 47.2968 205.222 46.979 206.022 46.979Z" fill="#090814"/>
<path d="M225.711 59.1649C225.507 59.1603 225.304 59.1965 225.113 59.2715C224.923 59.3464 224.75 59.4586 224.604 59.6014C224.458 59.7442 224.342 59.9147 224.263 60.103C224.184 60.2913 224.143 60.4935 224.143 60.6977C224.143 60.902 224.184 61.1042 224.263 61.2925C224.342 61.4807 224.458 61.6513 224.604 61.7941C224.75 61.9369 224.923 62.049 225.113 62.124C225.304 62.1989 225.507 62.2352 225.711 62.2305H337.631C337.835 62.2352 338.038 62.1989 338.228 62.124C338.418 62.049 338.592 61.9369 338.738 61.7941C338.884 61.6513 339 61.4807 339.079 61.2925C339.158 61.1042 339.199 60.902 339.199 60.6977C339.199 60.4935 339.158 60.2913 339.079 60.103C339 59.9147 338.884 59.7442 338.738 59.6014C338.592 59.4586 338.418 59.3464 338.228 59.2715C338.038 59.1965 337.835 59.1603 337.631 59.1649H225.711Z" fill="white"/>
<path d="M225.711 68.3625C225.31 68.3707 224.929 68.5353 224.648 68.8212C224.367 69.1071 224.21 69.4915 224.209 69.8922C224.208 70.2928 224.364 70.6778 224.644 70.9649C224.923 71.2519 225.304 71.4182 225.704 71.428H296.461C296.666 71.4327 296.869 71.3964 297.059 71.3215C297.249 71.2465 297.422 71.1344 297.568 70.9916C297.714 70.8488 297.83 70.6782 297.909 70.49C297.989 70.3017 298.029 70.0995 298.029 69.8952C298.029 69.691 297.989 69.4888 297.909 69.3005C297.83 69.1122 297.714 68.9417 297.568 68.7989C297.422 68.6561 297.249 68.5439 297.059 68.469C296.869 68.394 296.666 68.3578 296.461 68.3625H225.711Z" fill="white"/>
<path d="M381.155 29.232C385.662 29.232 389.316 25.5785 389.316 21.0716C389.316 16.5647 385.662 12.9112 381.155 12.9112C376.648 12.9112 372.994 16.5647 372.994 21.0716C372.994 25.5785 376.648 29.232 381.155 29.232Z" fill="#6C63FF"/>
<path d="M380.346 24.1813C380.162 24.1816 379.983 24.1222 379.836 24.012L379.827 24.0049L377.908 22.5379C377.729 22.4003 377.612 22.1972 377.582 21.9731C377.552 21.749 377.613 21.5223 377.751 21.3429C377.888 21.1635 378.091 21.0461 378.315 21.0165C378.54 20.9869 378.766 21.0475 378.946 21.185L380.188 22.1378L383.124 18.3084C383.262 18.1291 383.465 18.0118 383.689 17.9823C383.913 17.9528 384.139 18.0134 384.319 18.1509L384.301 18.1761L384.32 18.1509C384.499 18.2886 384.616 18.4917 384.645 18.7156C384.675 18.9396 384.614 19.1661 384.477 19.3455L381.024 23.8482C380.944 23.9519 380.841 24.0358 380.724 24.0935C380.606 24.1511 380.477 24.1817 380.346 24.1813Z" fill="white"/>
<path d="M354.818 0H208.517C205.473 0 203.005 2.4679 203.005 5.51221V31.1235C203.005 34.1678 205.473 36.6357 208.517 36.6357H354.818C357.862 36.6357 360.33 34.1678 360.33 31.1235V5.51221C360.33 2.4679 357.862 0 354.818 0Z" fill="#6C63FF"/>
<path d="M206.022 1.29301C205.565 1.29363 205.127 1.47544 204.804 1.79857C204.48 2.1217 204.299 2.55978 204.298 3.01675V33.6182C204.299 34.0752 204.48 34.5132 204.804 34.8364C205.127 35.1595 205.565 35.3413 206.022 35.3419H357.312C357.769 35.3413 358.207 35.1595 358.531 34.8364C358.854 34.5132 359.036 34.0752 359.036 33.6182V3.01675C359.036 2.55978 358.854 2.1217 358.531 1.79857C358.207 1.47544 357.769 1.29363 357.312 1.29301H206.022ZM206.022 0H357.312C358.113 0 358.88 0.317836 359.446 0.883587C360.011 1.44934 360.329 2.21666 360.329 3.01675V33.6182C360.329 34.0144 360.251 34.4066 360.1 34.7727C359.948 35.1387 359.726 35.4712 359.446 35.7514C359.165 36.0315 358.833 36.2537 358.467 36.4053C358.101 36.5569 357.709 36.6349 357.312 36.6349H206.022C205.626 36.6349 205.233 36.5569 204.867 36.4053C204.501 36.2537 204.169 36.0315 203.889 35.7514C203.608 35.4712 203.386 35.1387 203.235 34.7727C203.083 34.4066 203.005 34.0144 203.005 33.6182V3.01675C203.005 2.21666 203.323 1.44934 203.889 0.883587C204.454 0.317836 205.222 0 206.022 0Z" fill="#090814"/>
<path d="M225.711 12.1859C225.507 12.1813 225.304 12.2175 225.113 12.2925C224.923 12.3674 224.75 12.4796 224.604 12.6224C224.458 12.7651 224.342 12.9357 224.263 13.124C224.184 13.3122 224.143 13.5144 224.143 13.7187C224.143 13.923 224.184 14.1252 224.263 14.3134C224.342 14.5017 224.458 14.6722 224.604 14.815C224.75 14.9578 224.923 15.07 225.113 15.1449C225.304 15.2199 225.507 15.2561 225.711 15.2515H337.631C337.835 15.2561 338.038 15.2199 338.228 15.1449C338.418 15.07 338.592 14.9578 338.738 14.815C338.884 14.6722 339 14.5017 339.079 14.3134C339.158 14.1252 339.199 13.923 339.199 13.7187C339.199 13.5144 339.158 13.3122 339.079 13.124C339 12.9357 338.884 12.7651 338.738 12.6224C338.592 12.4796 338.418 12.3674 338.228 12.2925C338.038 12.2175 337.835 12.1813 337.631 12.1859H225.711Z" fill="white"/>
<path d="M225.711 21.3835C225.31 21.3917 224.929 21.5563 224.648 21.8422C224.367 22.1281 224.21 22.5125 224.209 22.9132C224.208 23.3138 224.364 23.6988 224.644 23.9859C224.923 24.2729 225.304 24.4392 225.704 24.449H296.461C296.666 24.4536 296.869 24.4174 297.059 24.3425C297.249 24.2675 297.422 24.1554 297.568 24.0126C297.714 23.8698 297.83 23.6992 297.909 23.511C297.989 23.3227 298.029 23.1205 298.029 22.9162C298.029 22.712 297.989 22.5098 297.909 22.3215C297.83 22.1332 297.714 21.9627 297.568 21.8199C297.422 21.6771 297.249 21.5649 297.059 21.49C296.869 21.415 296.666 21.3788 296.461 21.3835H225.711Z" fill="white"/>
<path d="M381.155 120.436C385.662 120.436 389.316 116.783 389.316 112.276C389.316 107.769 385.662 104.115 381.155 104.115C376.648 104.115 372.994 107.769 372.994 112.276C372.994 116.783 376.648 120.436 381.155 120.436Z" fill="#6C63FF"/>
<path d="M380.346 115.386C380.162 115.387 379.983 115.327 379.836 115.217L379.827 115.21L377.908 113.743C377.729 113.605 377.612 113.402 377.582 113.178C377.552 112.954 377.613 112.727 377.751 112.548C377.888 112.369 378.091 112.251 378.315 112.221C378.54 112.192 378.766 112.253 378.946 112.39L380.188 113.343L383.124 109.513C383.262 109.334 383.465 109.217 383.689 109.187C383.913 109.158 384.139 109.218 384.319 109.356L384.301 109.381L384.32 109.356C384.499 109.494 384.616 109.697 384.645 109.921C384.675 110.145 384.614 110.371 384.477 110.551L381.024 115.053C380.944 115.157 380.841 115.241 380.724 115.298C380.606 115.356 380.477 115.387 380.346 115.386Z" fill="white"/>
<path d="M319.132 206.027L242.602 188.36L218.032 294.773L294.562 312.44C294.837 312.503 295.126 312.455 295.365 312.305C295.605 312.156 295.775 311.917 295.838 311.642L319.929 207.303C319.992 207.028 319.944 206.739 319.794 206.5C319.645 206.26 319.406 206.09 319.132 206.027ZM223.03 292.833C222.654 292.746 222.312 292.55 222.048 292.269C221.784 291.988 221.608 291.635 221.545 291.254C221.481 290.874 221.532 290.483 221.69 290.131C221.849 289.779 222.108 289.482 222.435 289.278C222.762 289.074 223.143 288.971 223.528 288.983C223.914 288.994 224.287 289.12 224.601 289.344C224.915 289.568 225.156 289.88 225.293 290.241C225.429 290.602 225.456 290.995 225.369 291.371C225.312 291.621 225.205 291.856 225.057 292.065C224.908 292.273 224.72 292.451 224.502 292.586C224.285 292.722 224.043 292.814 223.791 292.856C223.538 292.898 223.279 292.89 223.03 292.833ZM225.263 283.159C224.887 283.072 224.546 282.876 224.281 282.595C224.017 282.314 223.842 281.961 223.778 281.58C223.715 281.2 223.765 280.809 223.924 280.457C224.082 280.105 224.341 279.809 224.669 279.604C224.996 279.4 225.376 279.297 225.762 279.309C226.147 279.32 226.521 279.446 226.835 279.67C227.149 279.894 227.39 280.206 227.526 280.567C227.663 280.928 227.69 281.321 227.603 281.697C227.486 282.201 227.175 282.638 226.736 282.912C226.297 283.187 225.767 283.275 225.263 283.159ZM227.497 273.485C227.121 273.398 226.779 273.202 226.515 272.921C226.251 272.64 226.076 272.287 226.012 271.906C225.948 271.526 225.999 271.135 226.157 270.783C226.316 270.432 226.575 270.135 226.902 269.93C227.229 269.726 227.61 269.623 227.995 269.635C228.381 269.647 228.754 269.772 229.069 269.996C229.383 270.22 229.623 270.533 229.76 270.893C229.897 271.254 229.923 271.647 229.836 272.023C229.72 272.527 229.408 272.964 228.969 273.239C228.531 273.513 228.001 273.601 227.497 273.485ZM229.731 263.811C229.355 263.724 229.013 263.528 228.748 263.247C228.484 262.966 228.309 262.613 228.245 262.233C228.181 261.852 228.232 261.461 228.39 261.109C228.548 260.758 228.808 260.461 229.135 260.256C229.462 260.052 229.843 259.949 230.228 259.961C230.614 259.973 230.988 260.098 231.302 260.323C231.616 260.547 231.856 260.859 231.993 261.22C232.129 261.581 232.156 261.974 232.069 262.35C232.011 262.599 231.905 262.835 231.756 263.044C231.608 263.252 231.419 263.43 231.202 263.565C230.985 263.701 230.743 263.793 230.49 263.835C230.238 263.877 229.979 263.869 229.73 263.812L229.731 263.811ZM231.964 254.137C231.588 254.05 231.246 253.854 230.982 253.573C230.718 253.292 230.543 252.939 230.479 252.559C230.415 252.178 230.466 251.787 230.624 251.436C230.783 251.084 231.042 250.787 231.369 250.582C231.696 250.378 232.077 250.275 232.463 250.287C232.848 250.299 233.222 250.425 233.536 250.649C233.85 250.873 234.09 251.185 234.227 251.546C234.364 251.906 234.39 252.299 234.304 252.675C234.187 253.179 233.875 253.617 233.437 253.891C232.998 254.165 232.468 254.254 231.964 254.137ZM234.198 244.463C233.822 244.377 233.48 244.18 233.216 243.899C232.951 243.618 232.776 243.265 232.713 242.885C232.649 242.504 232.7 242.113 232.858 241.762C233.016 241.41 233.276 241.113 233.603 240.909C233.93 240.704 234.31 240.601 234.696 240.613C235.082 240.625 235.455 240.751 235.769 240.975C236.083 241.199 236.324 241.511 236.461 241.872C236.597 242.232 236.624 242.626 236.537 243.002C236.421 243.506 236.109 243.943 235.67 244.217C235.231 244.491 234.702 244.58 234.198 244.463ZM236.431 234.789C236.055 234.703 235.714 234.506 235.449 234.225C235.185 233.944 235.01 233.591 234.946 233.211C234.883 232.83 234.933 232.44 235.092 232.088C235.25 231.736 235.509 231.439 235.836 231.235C236.164 231.03 236.544 230.927 236.93 230.939C237.315 230.951 237.689 231.077 238.003 231.301C238.317 231.525 238.557 231.837 238.694 232.198C238.831 232.559 238.857 232.952 238.771 233.328C238.654 233.832 238.342 234.269 237.904 234.543C237.465 234.817 236.935 234.906 236.431 234.789ZM238.665 225.116C238.289 225.029 237.947 224.832 237.683 224.551C237.419 224.27 237.243 223.917 237.18 223.537C237.116 223.156 237.167 222.766 237.325 222.414C237.484 222.062 237.743 221.765 238.07 221.561C238.397 221.356 238.778 221.254 239.163 221.265C239.549 221.277 239.922 221.403 240.236 221.627C240.55 221.851 240.791 222.163 240.928 222.524C241.064 222.885 241.091 223.278 241.004 223.654C240.887 224.157 240.575 224.593 240.137 224.867C239.698 225.14 239.169 225.229 238.666 225.112L238.665 225.116ZM240.898 215.445C240.522 215.358 240.18 215.162 239.916 214.881C239.651 214.6 239.476 214.247 239.412 213.867C239.348 213.487 239.399 213.096 239.557 212.744C239.715 212.392 239.974 212.095 240.301 211.891C240.628 211.686 241.008 211.583 241.394 211.594C241.779 211.606 242.153 211.731 242.467 211.955C242.781 212.179 243.022 212.49 243.159 212.851C243.296 213.211 243.323 213.605 243.237 213.98C243.18 214.23 243.074 214.466 242.925 214.675C242.776 214.884 242.588 215.061 242.371 215.197C242.153 215.333 241.912 215.425 241.659 215.468C241.406 215.51 241.147 215.502 240.898 215.445ZM243.131 205.771C242.755 205.684 242.414 205.488 242.149 205.207C241.885 204.926 241.71 204.573 241.646 204.192C241.583 203.812 241.633 203.421 241.792 203.069C241.95 202.717 242.209 202.421 242.536 202.216C242.864 202.012 243.244 201.909 243.63 201.921C244.015 201.932 244.389 202.058 244.703 202.282C245.017 202.506 245.258 202.818 245.394 203.179C245.531 203.54 245.558 203.933 245.471 204.309C245.354 204.813 245.042 205.25 244.604 205.524C244.165 205.799 243.635 205.887 243.131 205.771ZM245.365 196.097C244.989 196.01 244.647 195.814 244.383 195.534C244.119 195.253 243.943 194.9 243.879 194.52C243.815 194.14 243.865 193.749 244.023 193.397C244.181 193.046 244.44 192.749 244.767 192.544C245.093 192.339 245.473 192.235 245.859 192.246C246.244 192.258 246.618 192.383 246.932 192.606C247.247 192.829 247.488 193.14 247.625 193.501C247.763 193.861 247.79 194.254 247.705 194.63C247.647 194.879 247.542 195.116 247.393 195.325C247.244 195.533 247.056 195.711 246.839 195.847C246.621 195.983 246.38 196.075 246.127 196.117C245.874 196.16 245.615 196.152 245.365 196.095L245.365 196.097Z" fill="#6C63FF"/>
<path d="M241.979 194.402C241.541 194.301 237.71 193.392 237.904 192.552C238.098 191.713 241.94 192.574 242.378 192.675L242.298 193.02C240.039 192.499 238.504 192.457 238.217 192.625C238.402 192.901 239.799 193.535 242.059 194.057C244.319 194.579 245.846 194.62 246.138 194.455C245.626 194.048 245.031 193.759 244.394 193.609L244.501 193.27C246.581 193.978 246.489 194.376 246.453 194.529C246.26 195.366 242.417 194.504 241.979 194.402Z" fill="#2F2E41"/>
<path d="M239.786 203.904C239.347 203.802 235.516 202.893 235.71 202.053C235.904 201.214 239.746 202.075 240.184 202.176L240.105 202.522C237.845 202 236.311 201.959 236.023 202.126C236.208 202.402 237.606 203.037 239.865 203.558C242.125 204.08 243.653 204.121 243.945 203.956C243.433 203.549 242.837 203.26 242.2 203.11L242.308 202.772C244.387 203.479 244.295 203.877 244.26 204.03C244.067 204.867 240.224 204.005 239.786 203.904Z" fill="#2F2E41"/>
<path d="M237.552 213.577C237.114 213.476 233.283 212.567 233.477 211.727C233.671 210.888 237.513 211.749 237.951 211.85L237.871 212.195C235.612 211.674 234.077 211.632 233.79 211.8C233.975 212.076 235.372 212.71 237.632 213.232C239.892 213.754 241.419 213.795 241.711 213.63C241.199 213.223 240.604 212.934 239.967 212.784L240.074 212.445C242.154 213.153 242.062 213.551 242.026 213.704C241.833 214.541 237.99 213.678 237.552 213.577Z" fill="#2F2E41"/>
<path d="M235.319 223.251C234.88 223.15 231.049 222.241 231.243 221.401C231.437 220.562 235.279 221.423 235.717 221.524L235.638 221.869C233.378 221.348 231.844 221.306 231.556 221.473C231.741 221.75 233.139 222.384 235.398 222.906C237.658 223.428 239.186 223.469 239.478 223.304C238.966 222.897 238.37 222.608 237.733 222.457L237.84 222.119C239.92 222.826 239.828 223.225 239.793 223.378C239.6 224.214 235.757 223.352 235.319 223.251Z" fill="#2F2E41"/>
<path d="M233.085 232.925C232.647 232.824 228.816 231.914 229.01 231.075C229.204 230.236 233.046 231.097 233.484 231.198L233.404 231.543C231.144 231.021 229.61 230.98 229.323 231.147C229.508 231.424 230.905 232.058 233.165 232.58C235.425 233.101 236.952 233.143 237.244 232.978C236.732 232.57 236.137 232.281 235.5 232.131L235.607 231.793C237.687 232.5 237.595 232.898 237.559 233.052C237.366 233.888 233.523 233.026 233.085 232.925Z" fill="#2F2E41"/>
<path d="M230.852 242.599C230.414 242.498 226.583 241.588 226.776 240.749C226.97 239.909 230.812 240.771 231.251 240.872L231.171 241.217C228.911 240.695 227.377 240.654 227.089 240.821C227.275 241.097 228.672 241.732 230.931 242.254C233.191 242.775 234.719 242.817 235.011 242.651C234.499 242.244 233.903 241.955 233.267 241.805L233.374 241.467C235.453 242.174 235.361 242.572 235.326 242.726C235.133 243.562 231.29 242.7 230.852 242.599Z" fill="#2F2E41"/>
<path d="M228.618 252.273C228.18 252.171 224.349 251.262 224.543 250.423C224.737 249.583 228.579 250.444 229.017 250.545L228.937 250.891C226.677 250.369 225.143 250.328 224.856 250.495C225.041 250.771 226.438 251.406 228.698 251.927C230.958 252.449 232.485 252.49 232.777 252.325C232.265 251.918 231.67 251.629 231.033 251.479L231.14 251.141C233.22 251.848 233.128 252.246 233.092 252.399C232.899 253.236 229.056 252.374 228.618 252.273Z" fill="#2F2E41"/>
<path d="M226.385 261.946C225.947 261.845 222.116 260.936 222.309 260.096C222.503 259.257 226.345 260.118 226.783 260.219L226.704 260.565C224.444 260.043 222.91 260.001 222.622 260.169C222.808 260.445 224.205 261.079 226.464 261.601C228.724 262.123 230.252 262.164 230.544 261.999C230.032 261.592 229.436 261.303 228.799 261.153L228.907 260.814C230.986 261.522 230.894 261.92 230.859 262.073C230.666 262.91 226.823 262.048 226.385 261.946Z" fill="#2F2E41"/>
<path d="M224.151 271.62C223.713 271.519 219.882 270.61 220.076 269.77C220.269 268.931 224.112 269.792 224.55 269.893L224.47 270.238C222.21 269.717 220.676 269.675 220.389 269.842C220.574 270.119 221.971 270.753 224.231 271.275C226.491 271.797 228.018 271.838 228.31 271.673C227.798 271.266 227.203 270.977 226.566 270.826L226.673 270.488C228.753 271.195 228.661 271.594 228.625 271.747C228.432 272.583 224.589 271.721 224.151 271.62Z" fill="#2F2E41"/>
<path d="M221.918 281.294C221.48 281.193 217.648 280.283 217.842 279.444C218.036 278.605 221.878 279.466 222.316 279.567L222.237 279.912C219.977 279.391 218.443 279.349 218.155 279.516C218.34 279.793 219.738 280.427 221.997 280.949C224.257 281.47 225.785 281.512 226.077 281.347C225.565 280.939 224.969 280.65 224.332 280.5L224.44 280.162C226.519 280.869 226.427 281.267 226.392 281.421C226.199 282.257 222.356 281.395 221.918 281.294Z" fill="#2F2E41"/>
<path d="M219.684 290.968C219.246 290.867 215.415 289.957 215.609 289.118C215.803 288.278 219.645 289.14 220.083 289.241L220.003 289.586C217.744 289.064 216.209 289.023 215.922 289.19C216.107 289.466 217.504 290.101 219.764 290.623C222.024 291.144 223.551 291.186 223.843 291.02C223.331 290.613 222.736 290.324 222.099 290.174L222.206 289.836C224.286 290.543 224.194 290.941 224.158 291.095C223.965 291.931 220.122 291.069 219.684 290.968Z" fill="#2F2E41"/>
<path d="M294.105 243.1L256.098 234.326C255.801 234.257 255.543 234.073 255.381 233.814C255.219 233.555 255.166 233.242 255.235 232.945L258.665 218.088C258.734 217.79 258.918 217.532 259.177 217.37C259.436 217.209 259.749 217.156 260.047 217.224L298.053 225.998C298.351 226.067 298.609 226.251 298.771 226.51C298.932 226.769 298.985 227.082 298.917 227.38L295.486 242.237C295.417 242.534 295.233 242.792 294.974 242.954C294.715 243.116 294.402 243.168 294.105 243.1Z" fill="#E6E6E6"/>
<path d="M282.711 227.823L273.036 225.59C272.92 225.567 272.809 225.521 272.711 225.454C272.613 225.387 272.529 225.301 272.465 225.202C272.401 225.102 272.357 224.99 272.336 224.873C272.316 224.757 272.319 224.637 272.346 224.521C272.373 224.406 272.422 224.296 272.492 224.2C272.562 224.104 272.65 224.023 272.751 223.962C272.853 223.9 272.966 223.86 273.083 223.843C273.201 223.826 273.32 223.833 273.435 223.863L283.109 226.096C283.226 226.12 283.336 226.166 283.434 226.233C283.533 226.299 283.616 226.385 283.681 226.485C283.745 226.584 283.789 226.696 283.809 226.813C283.83 226.93 283.826 227.05 283.8 227.165C283.773 227.281 283.723 227.39 283.654 227.486C283.584 227.582 283.496 227.663 283.394 227.725C283.293 227.786 283.18 227.826 283.062 227.843C282.945 227.86 282.825 227.854 282.711 227.823Z" fill="#090814"/>
<path d="M287.069 233.379L266.684 228.673C266.568 228.65 266.457 228.603 266.359 228.537C266.261 228.47 266.177 228.384 266.113 228.284C266.048 228.185 266.005 228.073 265.984 227.956C265.964 227.839 265.967 227.72 265.994 227.604C266.02 227.488 266.07 227.379 266.14 227.283C266.209 227.187 266.297 227.106 266.399 227.044C266.501 226.983 266.613 226.943 266.731 226.926C266.848 226.909 266.968 226.916 267.083 226.946L287.468 231.652C287.691 231.71 287.883 231.853 288.002 232.051C288.121 232.248 288.159 232.484 288.107 232.709C288.055 232.933 287.918 233.129 287.724 233.254C287.53 233.379 287.295 233.424 287.069 233.379Z" fill="#090814"/>
<path d="M286.072 237.697L265.687 232.991C265.571 232.968 265.46 232.922 265.362 232.855C265.264 232.788 265.18 232.702 265.116 232.603C265.051 232.503 265.008 232.391 264.987 232.274C264.967 232.158 264.97 232.038 264.997 231.922C265.023 231.807 265.073 231.697 265.143 231.601C265.212 231.505 265.3 231.424 265.402 231.363C265.503 231.301 265.616 231.261 265.734 231.244C265.851 231.227 265.971 231.234 266.086 231.264L286.471 235.97C286.587 235.993 286.698 236.04 286.796 236.106C286.894 236.173 286.978 236.259 287.042 236.358C287.107 236.458 287.15 236.57 287.171 236.687C287.191 236.804 287.188 236.923 287.161 237.039C287.135 237.155 287.085 237.264 287.015 237.36C286.946 237.456 286.858 237.537 286.756 237.598C286.654 237.66 286.542 237.7 286.424 237.717C286.307 237.734 286.187 237.727 286.072 237.697Z" fill="#090814"/>
</g>
<defs>
<clipPath id="clip0_2_268">
<rect width="756" height="542" fill="white"/>
</clipPath>
</defs>
</svg>
